<?xml version="1.0" encoding="UTF-8"?>
<!DOCTYPE svg PUBLIC "-//W3C//DTD SVG 1.1//EN" "http://www.w3.org/Graphics/SVG/1.1/DTD/svg11.dtd">
<!-- Creator: CorelDRAW 2020 (64-Bit Versión de evaluación) -->
<svg xmlns="http://www.w3.org/2000/svg" xml:space="preserve" width="157.5mm" height="183.75mm" version="1.1" style="shape-rendering:geometricPrecision; text-rendering:geometricPrecision; image-rendering:optimizeQuality; fill-rule:evenodd; clip-rule:evenodd"
viewBox="0 0 10122.64 11809.74"
 xmlns:xlink="http://www.w3.org/1999/xlink"
 xmlns:xodm="http://www.corel.com/coreldraw/odm/2003">
 <defs>
  <style type="text/css">
   <![CDATA[
    .fil0 {fill:#FEFEFE;fill-rule:nonzero}
   ]]>
  </style>
 </defs>
 <g id="Capa_x0020_1">
  <metadata id="CorelCorpID_0Corel-Layer"/>
  <g>
   <path id="bell.svg" class="fil0" d="M10122.64 9560.27l0 562.37 -10122.64 0 0 -562.37 1124.74 -1124.74 0 -3374.21c0,-1743.34 1141.61,-3278.61 2811.84,-3773.49 0,-56.24 0,-106.85 0,-163.09 0.01,-621.07 503.67,-1124.74 1124.74,-1124.74 621.07,0 1124.74,503.66 1124.74,1124.74 0,56.24 0,106.85 0,163.09 1670.24,494.88 2811.84,2030.15 2811.84,3773.49l0 3374.21 1124.74 1124.74 0 0zm-3936.58 1124.74c0,621.07 -503.66,1124.73 -1124.74,1124.73 -621.07,0 -1124.73,-503.66 -1124.73,-1124.74l2249.47 0.01zm0 0l0 0 0 0z"/>
  </g>
 </g>
</svg>