<?xml version="1.0" encoding="UTF-8"?>
<!DOCTYPE svg PUBLIC "-//W3C//DTD SVG 1.1//EN" "http://www.w3.org/Graphics/SVG/1.1/DTD/svg11.dtd">
<!-- Creator: CorelDRAW 2020 (64-Bit Versión de evaluación) -->
<svg xmlns="http://www.w3.org/2000/svg" xml:space="preserve" width="153.125mm" height="153.125mm" version="1.1" style="shape-rendering:geometricPrecision; text-rendering:geometricPrecision; image-rendering:optimizeQuality; fill-rule:evenodd; clip-rule:evenodd"
viewBox="0 0 16372.12 16372.13"
 xmlns:xlink="http://www.w3.org/1999/xlink"
 xmlns:xodm="http://www.corel.com/coreldraw/odm/2003">
 <defs>
  <style type="text/css">
   <![CDATA[
    .fil0 {fill:#FEFEFE;fill-rule:nonzero}
   ]]>
  </style>
 </defs>
 <g id="Capa_x0020_1">
  <metadata id="CorelCorpID_0Corel-Layer"/>
  <g>
   <path id="magnify.svg" class="fil0" d="M6081.07 0c3357.92,0 6081.08,2723.16 6081.08,6081.08 0,1506.24 -551.97,2890.85 -1459.46,3957.38l252.6 252.6 739.08 0 4677.75 4677.75 -1403.33 1403.33 -4677.75 -4677.75 0 -739.08 -252.6 -252.6c-1066.53,907.48 -2451.14,1459.46 -3957.38,1459.46 -3357.91,-0.01 -6081.07,-2723.17 -6081.07,-6081.08 0,-3357.92 2723.16,-6081.08 6081.08,-6081.08l-0.01 0zm0 1871.1c-2338.88,0 -4209.98,1871.1 -4209.98,4209.98 0,2338.88 1871.1,4209.98 4209.98,4209.98 2338.88,0 4209.98,-1871.1 4209.98,-4209.98 0,-2338.88 -1871.1,-4209.98 -4209.98,-4209.98z"/>
  </g>
 </g>
</svg>